<svg width="400" height="371" viewBox="0 0 400 371" fill="none" xmlns="http://www.w3.org/2000/svg">
<path d="M198.123 371C307.544 371 396.247 365.05 396.247 357.711C396.247 350.372 307.544 344.422 198.123 344.422C88.7028 344.422 0 350.372 0 357.711C0 365.05 88.7028 371 198.123 371Z" fill="#3F3D56"/>
<path d="M201.444 212.638H194.803V216.514H201.444V212.638Z" fill="#3F3D56"/>
<path d="M214.726 212.638H208.085V216.514H214.726V212.638Z" fill="#3F3D56"/>
<path d="M228.008 212.638H221.367V216.514H228.008V212.638Z" fill="#3F3D56"/>
<path d="M241.29 212.638H234.649V216.514H241.29V212.638Z" fill="#3F3D56"/>
<path d="M254.572 212.638H247.931V216.514H254.572V212.638Z" fill="#3F3D56"/>
<path d="M267.854 212.638H261.213V216.514H267.854V212.638Z" fill="#3F3D56"/>
<path d="M281.136 212.638H274.495V216.514H281.136V212.638Z" fill="#3F3D56"/>
<path d="M294.418 212.638H287.777V216.514H294.418V212.638Z" fill="#3F3D56"/>
<path d="M307.7 212.638H301.059V216.514H307.7V212.638Z" fill="#3F3D56"/>
<path d="M320.982 212.638H314.341V216.514H320.982V212.638Z" fill="#3F3D56"/>
<path d="M334.264 212.638H327.623V216.514H334.264V212.638Z" fill="#3F3D56"/>
<path d="M349.483 215.13C349.483 236.277 341.087 256.558 326.142 271.511C311.196 286.464 290.926 294.865 269.791 294.865C248.655 294.865 228.385 286.464 213.44 271.511C198.495 256.558 190.099 236.277 190.099 215.13H349.483Z" fill="#3F3D56"/>
<path d="M345.631 215.639L294.938 64.4539C304.859 61.1163 315.341 59.7683 325.783 60.487C336.226 61.2057 346.424 63.977 355.795 68.6424C365.167 73.3078 373.527 79.7758 380.397 87.6765C387.268 95.5772 392.515 104.756 395.837 114.687C396.374 116.287 396.861 117.898 397.293 119.509C402.511 139.101 400.073 159.946 390.476 177.804C380.879 195.662 364.844 209.191 345.631 215.639Z" fill="#3F3D56"/>
<path d="M347.546 227.589C353.048 227.589 357.507 223.126 357.507 217.622C357.507 212.117 353.048 207.655 347.546 207.655C342.044 207.655 337.584 212.117 337.584 217.622C337.584 223.126 342.044 227.589 347.546 227.589Z" fill="#3F3D56"/>
<path d="M246.271 235.894C245.537 235.894 244.833 236.186 244.314 236.705C243.795 237.224 243.504 237.929 243.504 238.663C243.504 239.397 243.795 240.101 244.314 240.62C244.833 241.14 245.537 241.431 246.271 241.431H293.865C294.599 241.431 295.302 241.14 295.821 240.62C296.34 240.101 296.632 239.397 296.632 238.663C296.632 237.929 296.34 237.224 295.821 236.705C295.302 236.186 294.599 235.894 293.865 235.894H246.271Z" fill="#00A521"/>
<path d="M335.924 359.372L326.015 359.738L290.314 282.919L299.347 278.717L335.924 359.372Z" fill="#3F3D56"/>
<path d="M203.657 359.372L213.567 359.738L249.268 282.919L240.235 278.717L203.657 359.372Z" fill="#3F3D56"/>
<path d="M311.02 315.075H229.115V320.612H311.02V315.075Z" fill="#3F3D56"/>
<path d="M296.964 61.6313C296.575 61.6315 296.191 61.7229 295.844 61.8982C295.496 62.0735 295.195 62.3279 294.963 62.6409C294.732 62.9539 294.577 63.3168 294.511 63.7005C294.445 64.0843 294.469 64.4781 294.583 64.8506L296.683 71.7355C296.876 72.367 297.312 72.8959 297.895 73.2061C298.478 73.5162 299.16 73.5821 299.791 73.3894C300.422 73.1967 300.952 72.7611 301.262 72.1782C301.573 71.5954 301.639 70.9131 301.447 70.2812L299.348 63.3963C299.191 62.8858 298.875 62.4389 298.446 62.1213C298.017 61.8036 297.498 61.6319 296.964 61.6313Z" fill="#00A521"/>
<path d="M186.778 216.514C186.118 216.514 185.484 216.777 185.017 217.244C184.55 217.711 184.288 218.345 184.288 219.006C184.288 219.667 184.55 220.301 185.017 220.768C185.484 221.235 186.118 221.498 186.778 221.498H193.973C194.633 221.498 195.267 221.235 195.734 220.768C196.201 220.301 196.463 219.667 196.463 219.006C196.463 218.345 196.201 217.711 195.734 217.244C195.267 216.777 194.633 216.514 193.973 216.514H186.778Z" fill="#00A521"/>
<path d="M246.271 198.242H216.386C216.198 198.242 216.015 198.247 215.833 198.264C213.88 198.403 212.053 199.277 210.718 200.71C209.383 202.143 208.64 204.028 208.638 205.986C208.636 207.945 209.375 209.831 210.707 211.267C212.038 212.702 213.864 213.58 215.816 213.724C216.004 213.74 216.192 213.746 216.386 213.746H246.271C248.325 213.746 250.296 212.929 251.749 211.475C253.202 210.021 254.018 208.05 254.018 205.994C254.018 203.938 253.202 201.966 251.749 200.512C250.296 199.059 248.325 198.242 246.271 198.242Z" fill="#FF6584"/>
<path opacity="0.2" d="M213.376 213.131C218.467 212.478 222.474 206.049 222.474 198.242H221.367C221.367 205.878 217.393 212.085 212.512 212.085V212.705L213.376 213.131Z" fill="#FF6584"/>
<path opacity="0.2" d="M224.134 213.192V212.085C229.016 212.085 232.989 205.875 232.989 198.242H234.095C234.095 206.485 229.627 213.192 224.134 213.192Z" fill="#FF6584"/>
<path opacity="0.2" d="M235.756 213.192V212.085C240.638 212.085 244.61 205.875 244.61 198.242H245.717C245.717 206.485 241.249 213.192 235.756 213.192Z" fill="#FF6584"/>
<path d="M300.505 198.242H270.621C270.433 198.242 270.25 198.247 270.067 198.264C268.115 198.403 266.288 199.277 264.953 200.71C263.618 202.143 262.875 204.028 262.873 205.986C262.871 207.945 263.61 209.831 264.942 211.267C266.273 212.702 268.099 213.58 270.051 213.724C270.239 213.74 270.427 213.746 270.621 213.746H300.505C302.56 213.746 304.531 212.929 305.984 211.475C307.437 210.021 308.253 208.05 308.253 205.994C308.253 203.938 307.437 201.966 305.984 200.512C304.531 199.059 302.56 198.242 300.505 198.242Z" fill="#FF6584"/>
<path opacity="0.2" d="M267.61 213.131C272.702 212.478 276.709 206.049 276.709 198.242H275.602C275.602 205.878 271.628 212.085 266.747 212.085V212.705L267.61 213.131Z" fill="#FF6584"/>
<path opacity="0.2" d="M278.369 213.192V212.085C283.251 212.085 287.223 205.875 287.223 198.242H288.33C288.33 206.485 283.862 213.192 278.369 213.192Z" fill="#FF6584"/>
<path opacity="0.2" d="M289.991 213.192V212.085C294.873 212.085 298.845 205.875 298.845 198.242H299.952C299.952 206.485 295.483 213.192 289.991 213.192Z" fill="#FF6584"/>
<path d="M244.084 123.799C240.167 121.682 235.325 123.991 233.373 127.738C230.999 132.296 232.967 137.776 235.735 141.672C238.612 145.72 242.516 149.062 244.436 153.74C246.273 158.143 246.491 163.055 245.051 167.603C243.611 172.152 240.606 176.042 236.571 178.584C234.77 179.724 236.434 182.6 238.247 181.452C242.205 178.978 245.336 175.381 247.241 171.118C249.146 166.855 249.738 162.121 248.942 157.52C248.537 155.134 247.767 152.825 246.657 150.675C245.453 148.481 244.004 146.431 242.336 144.565C239.455 141.154 235.829 137.393 235.648 132.647C235.615 132.032 235.658 131.414 235.776 130.809C235.862 130.386 235.99 129.973 236.159 129.576C236.562 128.723 237.159 127.977 237.903 127.399C238.593 126.848 239.409 126.478 240.278 126.323C241.007 126.215 241.75 126.335 242.408 126.668C244.288 127.684 245.966 124.817 244.084 123.799Z" fill="#E6E6E6"/>
<path d="M294.048 143.895C292.38 143.359 290.598 143.285 288.892 143.682C287.186 144.079 285.619 144.931 284.359 146.148C283.707 146.819 283.225 147.634 282.951 148.528C282.677 149.422 282.621 150.369 282.785 151.289C283.101 153.302 284.372 155.09 285.75 156.531C288.447 159.351 292.221 161.174 294.482 164.411C295.485 165.791 296.115 167.406 296.309 169.1C296.425 170.623 296.146 172.149 295.499 173.532C293.812 176.963 290.463 179.296 286.932 180.799C286.106 181.15 285.924 182.367 286.336 183.071C286.566 183.443 286.93 183.712 287.353 183.823C287.776 183.934 288.225 183.878 288.608 183.667C295.107 180.903 301.12 174.711 299.327 167.104C298.384 163.103 295.494 160.279 292.382 157.824C290.836 156.69 289.376 155.444 288.014 154.095C286.938 152.951 285.82 151.389 286.018 149.839C286.097 149.3 286.361 148.806 286.764 148.439C287.252 147.992 287.807 147.623 288.409 147.346C289.146 146.992 289.946 146.788 290.762 146.746C291.579 146.704 292.395 146.823 293.165 147.099C293.59 147.212 294.041 147.153 294.423 146.936C294.805 146.72 295.087 146.361 295.207 145.939C295.315 145.514 295.255 145.064 295.039 144.683C294.823 144.302 294.468 144.02 294.048 143.895V143.895Z" fill="#E6E6E6"/>
<path d="M268.77 96.6362C267.78 95.7906 266.531 95.3093 265.231 95.2726C263.997 95.2958 262.798 95.6838 261.784 96.3877C259.494 98.0518 257.874 100.48 257.217 103.234C255.539 109.664 257.728 116.595 260.769 122.259C262.306 125.122 264.096 127.839 265.644 130.697C267.136 133.429 268.281 136.338 269.054 139.354C270.629 145.539 270.77 152.003 269.465 158.251C268.136 164.47 265.341 170.628 260.585 174.919C260.274 175.23 260.099 175.653 260.099 176.093C260.099 176.534 260.274 176.956 260.585 177.268C260.896 177.579 261.319 177.754 261.759 177.754C262.199 177.754 262.622 177.579 262.933 177.268C267.154 173.459 269.977 168.235 271.681 162.864C273.561 156.796 274.111 150.395 273.293 144.096C272.923 140.959 272.209 137.872 271.164 134.892C270.032 131.889 268.618 129.001 266.941 126.265C263.82 120.986 260.497 115.646 260.046 109.36C259.823 106.268 260.21 103.046 262.121 100.56C262.017 100.696 262.205 100.461 262.206 100.46C262.322 100.321 262.442 100.186 262.566 100.055C262.804 99.8 263.059 99.5625 263.329 99.344C263.272 99.3897 263.125 99.4879 263.392 99.3023C263.525 99.21 263.661 99.1216 263.801 99.0395C263.914 98.9727 264.031 98.9135 264.147 98.8518C264.216 98.8165 264.286 98.7834 264.357 98.7522C264.195 98.8219 264.205 98.8225 264.384 98.7542C264.514 98.7135 265.157 98.5744 264.8 98.6196C264.919 98.6053 265.039 98.5976 265.159 98.5962C265.21 98.5953 265.658 98.6183 265.439 98.5943C265.183 98.5663 265.641 98.6398 265.644 98.6406C265.788 98.6756 265.929 98.7203 266.066 98.7742C265.721 98.6361 266.632 99.1491 266.422 98.9854C266.74 99.2841 267.16 99.4504 267.596 99.4504C268.032 99.4504 268.452 99.2841 268.77 98.9854C269.343 98.4122 269.482 97.1899 268.77 96.6362L268.77 96.6362Z" fill="#E6E6E6"/>
<path d="M141.281 346.292L128.764 349.614L105.773 243.29L131.574 240.989L141.281 346.292Z" fill="#FFCCAA"/>
<path d="M84.0109 347.926L71.206 349.862L59.9522 241.662L85.8494 242.193L84.0109 347.926Z" fill="#FFCCAA"/>
<path d="M77.418 193.961L78.6004 216.044C78.6439 216.857 78.5122 217.669 78.2142 218.425C77.9163 219.182 77.4591 219.866 76.8737 220.43C76.2882 220.995 75.5883 221.427 74.8214 221.696C74.0544 221.966 73.2384 222.068 72.4288 221.994C71.1055 221.874 69.8666 221.292 68.9286 220.35C67.9905 219.409 67.413 218.167 67.2969 216.843L65.1563 192.428L48.2964 135.176L48.8074 98.3714L68.7326 99.3937L77.418 193.961Z" fill="#FFCCAA"/>
<path d="M88.147 248.146C78.1663 244.679 66.5858 243.997 53.4055 246.101C55.2747 223.947 56.3573 203.375 55.4491 186.805H123.399L88.147 248.146Z" fill="#2F2E41"/>
<path d="M135.661 247.635C125.374 253.079 110.494 255.686 93.256 256.836L71.798 188.338L124.421 187.316L135.661 247.635Z" fill="#2F2E41"/>
<path d="M162.15 357.407L125.132 358.779C120.39 358.954 120.14 354.88 121.035 350.218L125.418 337.697C135.285 347.369 136.214 347.909 140.444 334.151L153.353 344.352L162.908 345.991C164.247 346.221 165.46 346.917 166.335 347.956C167.209 348.995 167.688 350.311 167.685 351.669C167.683 353.156 167.105 354.584 166.073 355.654C165.041 356.724 163.635 357.352 162.15 357.407Z" fill="#2F2E41"/>
<path d="M106.084 357.407L69.0655 358.779C64.3236 358.954 64.0735 354.88 64.9687 350.218L69.3513 337.697C79.2185 347.369 80.1477 347.909 84.3775 334.151L97.2867 344.352L106.842 345.991C108.18 346.221 109.394 346.917 110.268 347.956C111.143 348.995 111.621 350.311 111.619 351.669C111.617 353.156 111.039 354.584 110.007 355.654C108.975 356.724 107.569 357.352 106.084 357.407Z" fill="#2F2E41"/>
<path d="M114.714 44.1866C125.718 44.1866 134.639 35.261 134.639 24.2508C134.639 13.2405 125.718 4.31488 114.714 4.31488C103.71 4.31488 94.7887 13.2405 94.7887 24.2508C94.7887 35.261 103.71 44.1866 114.714 44.1866Z" fill="#FFCCAA"/>
<path d="M104.496 59.5218L80.9943 52.3657L96.8325 28.8512L114.714 36.519L104.496 59.5218Z" fill="#FFCCAA"/>
<path d="M126.465 192.939C102.305 198.374 75.4864 196.218 52.3837 189.872C57.9161 159.005 55.2451 125.85 49.8291 98.8825C45.59 77.7745 56.7728 60.062 75.3743 51.3431C79.3727 49.9085 83.5322 48.9714 87.7592 48.5528C100.808 47.3961 112.289 57.1853 113.65 70.2209L126.465 192.939Z" fill="#00A521"/>
<path d="M63.6236 109.106L46.7637 107.061L51.8729 80.4804H63.6236V109.106Z" fill="#00A521"/>
<path d="M114.435 27.4074L111.383 26.0501C110.691 25.7435 109.941 25.591 109.185 25.6032C108.428 25.6155 107.684 25.7921 107.002 26.121C106.321 26.4498 105.719 26.923 105.239 27.5076C104.758 28.0923 104.411 28.7745 104.22 29.5069L99.9662 37.1972L89.371 35.5192L89.7411 19.2397C90.2236 16.1633 91.3319 13.2187 92.9976 10.5882C94.6632 7.95771 96.8508 5.69722 99.4248 3.94667C101.999 2.19612 104.904 0.992774 107.962 0.411095C111.02 -0.170583 114.164 -0.118209 117.2 0.564977L117.49 0.630435C122.662 1.80117 129.377 5.60085 132.883 9.58954L139.414 17.0212C139.723 17.3738 139.931 17.8045 140.013 18.2667C140.095 18.7288 140.049 19.2046 139.88 19.6424C139.71 20.0801 139.424 20.4631 139.053 20.7497C138.681 21.0363 138.238 21.2155 137.772 21.2679L128.84 22.254L114.435 27.4074Z" fill="#2F2E41"/>
<path d="M180.525 163.366L169.084 173.407C168.918 173.552 168.702 173.625 168.482 173.61C168.263 173.596 168.058 173.495 167.913 173.329C167.768 173.164 167.694 172.947 167.709 172.728C167.723 172.508 167.824 172.303 167.989 172.158L179.43 162.117L177.241 159.619L165.8 169.66C165.634 169.805 165.418 169.878 165.198 169.864C164.979 169.85 164.774 169.748 164.629 169.583C164.484 169.417 164.41 169.201 164.424 168.981C164.439 168.762 164.539 168.557 164.705 168.411L176.146 158.37L173.957 155.873L162.515 165.914C162.433 165.986 162.338 166.041 162.235 166.076C162.131 166.111 162.022 166.126 161.913 166.119C161.805 166.112 161.698 166.083 161.6 166.035C161.502 165.987 161.415 165.92 161.343 165.837C161.271 165.755 161.216 165.66 161.181 165.557C161.146 165.453 161.132 165.344 161.139 165.235C161.146 165.126 161.175 165.02 161.223 164.922C161.271 164.824 161.338 164.737 161.42 164.665L172.862 154.624L170.125 151.502L153.956 165.691C152.513 166.959 151.548 168.683 151.224 170.577C150.9 172.47 151.235 174.418 152.175 176.093L103.36 218.934L107.739 223.929L156.522 181.117C158.01 182.292 159.863 182.909 161.758 182.86C163.653 182.811 165.471 182.1 166.897 180.85L183.262 166.488L180.525 163.366Z" fill="#E6E6E6"/>
<path d="M124.932 193.961L126.114 216.044C126.158 216.857 126.026 217.669 125.728 218.425C125.43 219.182 124.973 219.866 124.388 220.43C123.802 220.995 123.102 221.427 122.335 221.696C121.568 221.966 120.752 222.068 119.943 221.994C118.62 221.874 117.381 221.292 116.443 220.35C115.505 219.409 114.927 218.167 114.811 216.843L112.67 192.428L95.8105 135.176L96.3214 98.3714L116.247 99.3937L124.932 193.961Z" fill="#FFCCAA"/>
<path d="M117.779 105.017C111.717 99.198 103.714 98.9843 94.7887 101.438V73.9667C94.7887 70.678 96.0944 67.524 98.4186 65.1986C100.743 62.8731 103.895 61.5667 107.182 61.5667C108.695 61.5667 110.192 61.8693 111.587 62.4568C112.981 63.0442 114.244 63.9046 115.301 64.9875C116.358 66.0703 117.188 67.3536 117.742 68.762C118.296 70.1704 118.563 71.6755 118.528 73.1887L117.779 105.017Z" fill="#00A521"/>
</svg>
