<svg width="136" height="84" viewBox="0 0 136 84" fill="none" xmlns="http://www.w3.org/2000/svg">
<path fill-rule="evenodd" clip-rule="evenodd" d="M19.8262 44.3822L68.3479 28.8119L117.913 42.1332L73.2175 59.9526L19.8262 44.3822Z" fill="#CCC8AB"/>
<path fill-rule="evenodd" clip-rule="evenodd" d="M116.174 42.6522L68.5218 30.0229L22.7827 47.3233L19.8262 44.3823L68.0001 26.5629L117.913 39.8842C118.605 42.884 118.605 44.6141 117.913 45.0743C117.447 45.3026 116.984 44.9601 116.522 44.0363L116.174 42.6522Z" fill="#F5F5F5"/>
<path fill-rule="evenodd" clip-rule="evenodd" d="M19.8262 44.3823L77.2175 57.7035L118.957 39.8842L105.739 69.8138L76.6957 83.1351L32.6957 73.1009L19.8262 44.3823Z" fill="#DBDBDB"/>
<path fill-rule="evenodd" clip-rule="evenodd" d="M117.913 45.0743L105.739 69.8138L76.6957 83.1351L78.9566 61.6826L117.913 45.0743Z" fill="#B2B2B2"/>
<path fill-rule="evenodd" clip-rule="evenodd" d="M20.5218 49.0534L19.8262 44.3823L80.174 57.1845L118.957 39.8842L117.217 45.5933L78.9566 61.6826L20.5218 49.0534Z" fill="#F5F5F5"/>
<path fill-rule="evenodd" clip-rule="evenodd" d="M88.3478 51.6485C87.8817 51.6485 85.8539 52.6865 82.2609 54.7591L77.2174 57.7036L48.8696 50.7834L73.2174 40.0572L98.7861 40.4032L88.3478 51.6485Z" fill="#586436"/>
<path fill-rule="evenodd" clip-rule="evenodd" d="M34.261 50.9564L67.4784 59.2605L54.7828 75.0039L36.5219 72.4088L34.261 50.9564Z" fill="#E4E4E4"/>
<path fill-rule="evenodd" clip-rule="evenodd" d="M114.957 47.8423L106.261 68.6027L76.6957 83.135C85.621 75.0627 92.407 69.0664 97.047 65.1427C101.68 61.3366 107.652 55.5686 114.957 47.8423Z" fill="#949494"/>
<path fill-rule="evenodd" clip-rule="evenodd" d="M43.1306 20.5077C51.0158 25.6978 56.9845 29.3309 61.0436 31.4069C64.2923 33.0228 69.221 36.8842 75.8262 42.9982C64.8105 41.8425 57.5653 40.2855 54.0871 38.3271C53.0436 37.6351 50.8975 35.2718 47.6523 31.2339L43.1306 25.3518V20.5077Z" fill="#90A701"/>
<path fill-rule="evenodd" clip-rule="evenodd" d="M34.9565 32.2719L39.6522 30.0229L45.2174 32.4449C49.1583 34.175 51.8261 35.0988 53.2174 35.213C55.6522 35.559 61.4504 37.8669 70.6087 42.1332C62.4939 43.6348 56.2331 43.922 51.8261 42.9982C47.5374 42.192 41.9131 38.6143 34.9565 32.2719Z" fill="#C7C902"/>
<path fill-rule="evenodd" clip-rule="evenodd" d="M56.174 51.6484C47.4783 50.4927 42.4348 49.2263 41.0435 47.8388C40.5809 47.3786 37.3914 46.2852 31.4783 44.5552C28.5809 43.749 25.68 42.9393 22.7827 42.1331L30.9566 37.462L45.7392 42.6522C48.9844 43.8078 52.4627 46.8042 56.174 51.6484Z" fill="#586436"/>
<path fill-rule="evenodd" clip-rule="evenodd" d="M110.957 34.002C113.273 36.3099 113.447 38.3271 111.475 40.0572C109.388 41.7872 100.4 46.2299 84.5183 53.3785L86.4314 49.0534C87.9409 46.0535 89.6209 43.9221 91.4748 42.6487C93.5653 41.1505 97.0992 39.3063 102.084 37.1126C106.957 35.04 109.913 34.002 110.957 34.002Z" fill="#586436"/>
<path fill-rule="evenodd" clip-rule="evenodd" d="M68.0001 36.5971L73.0436 33.656C76.8697 31.6942 79.941 30.6562 82.261 30.542C86.0871 30.196 90.7236 30.196 96.174 30.542C91.8853 34.2304 87.5375 36.2511 83.1306 36.5971H68.0001Z" fill="#586436"/>
<path fill-rule="evenodd" clip-rule="evenodd" d="M105.739 29.6769C101.099 36.0192 97.2174 40.4619 94.0835 42.9982C90.8348 45.652 83.8783 48.7038 73.2139 52.1639C76.1148 48.7038 79.127 45.5344 82.2609 42.6487C85.5061 39.7699 93.3322 35.4448 105.739 29.6769Z" fill="#90A701"/>
<path fill-rule="evenodd" clip-rule="evenodd" d="M63.1306 34.348C66.9566 31.4658 72.0592 28.4659 78.4349 25.3518C82.6088 23.1616 88.1149 21.2551 94.9566 19.6427L98.4349 23.1028C89.1618 26.9089 82.7827 29.3863 79.3045 30.5419C77.1027 31.234 74.3166 32.445 70.9601 34.175L66.6123 36.5971L63.1306 34.348Z" fill="#C7C902"/>
<path fill-rule="evenodd" clip-rule="evenodd" d="M68.0001 36.5971L70.261 33.829C72.2297 31.753 74.494 30.3689 77.0436 29.6769C81.0993 28.5247 85.7393 26.9089 90.9566 24.8328L94.9532 28.8119L87.1271 31.407C75.1862 33.9432 68.8106 35.6732 68.0001 36.5971Z" fill="#90A701"/>
<path fill-rule="evenodd" clip-rule="evenodd" d="M70.087 29.1579L64 34.002L52.3478 26.2168L57.5652 22.2377L70.087 29.1579Z" fill="#586436"/>
<path fill-rule="evenodd" clip-rule="evenodd" d="M96.174 34.348L86.6088 40.0571C83.7079 41.7872 79.8262 43.057 74.9531 43.8632C72.1705 44.3234 67.9966 45.4791 62.4314 47.3233L54.9531 49.9184L52.3444 46.4583C59.8818 43.922 66.6644 41.4965 72.6957 39.1921C78.8418 36.8843 86.6679 35.2719 96.174 34.348Z" fill="#C7C902"/>
<path fill-rule="evenodd" clip-rule="evenodd" d="M68 36.597L76.1739 36.078L52.6957 48.1883L47.1304 44.3822L68 36.597Z" fill="#586436"/>
<path fill-rule="evenodd" clip-rule="evenodd" d="M79.6523 42.9982L75.3045 47.8424L45.7393 47.3233L54.4349 43.5172L79.6523 42.9982Z" fill="#90A701"/>
<path fill-rule="evenodd" clip-rule="evenodd" d="M84.8697 53.3784L78.7827 57.7035L62.261 52.1674L63.6523 46.9773L66.6123 48.5343C68.9288 49.5723 71.2488 50.2055 73.5688 50.4374C77.3914 50.6692 81.1584 51.6484 84.8697 53.3784Z" fill="#C7C902"/>
</svg>
